<svg xmlns="http://www.w3.org/2000/svg" viewBox="368.676 269.191164 524.172 433.884" role="img" aria-hidden="true">
<style>
  .pen { fill: #8f6340; stroke: #8f6340; }
  @media (prefers-color-scheme: dark) {
    .pen { fill: #ebc896; stroke: #ebc896; }
  }
</style>
<path transform="translate(605,296)" fill="#0768FB" d="M0 0 C18.15 0 36.3 0 55 0 C55 7.26 55 14.52 55 22 C114.4 22 173.8 22 235 22 C235.33 20.02 235.66 18.04 236 16 C239.098 10.158 243.127 6.824 249 4 C249.66 3.67 250.32 3.34 251 3 C258.773 2.387 265.513 2.392 271.836 7.477 C276.77 12.036 280.459 16.851 281.344 23.637 C281.609 31.549 280.24 38.488 275.312 44.812 C269.859 50.518 264.884 52.242 257 52.562 C249.717 52.337 245.556 50.575 240.48 45.473 C237.292 41.862 235 38.855 235 34 C190.12 34.33 145.24 34.66 99 35 C103.29 36.65 107.58 38.3 112 40 C155.689 58.561 191.919 92.822 215 134 C215.398 134.696 215.796 135.392 216.206 136.109 C233.067 165.793 243 199.759 243 234 C248.94 234 254.88 234 261 234 C261 248.52 261 263.04 261 278 C245.16 278 229.32 278 213 278 C213 263.48 213 248.96 213 234 C218.94 234 224.88 234 231 234 C227.982 197.68 219.2 164.401 200 133 C199.609 132.358 199.218 131.716 198.814 131.055 C186.387 110.955 170.095 92.015 151 78 C150.496 77.618 150.496 77.618 147.945 75.688 C138.461 68.617 128.39 62.637 118 57 C117.691 56.832 117.691 56.832 116.125 55.981 C97.235 45.95 75.757 40.564 55 36 C55 42.93 55 49.86 55 57 C36.85 57 18.7 57 0 57 C0 50.07 0 43.14 0 36 C-43.096 41.577 -87.393 61.542 -117.438 93.465 C-119 95 -119 95 -121.418 96.871 C-124.113 99.093 -126.137 101.397 -128.312 104.125 C-129.092 105.101 -129.872 106.077 -130.676 107.082 C-131.443 108.045 -132.21 109.008 -133 110 C-133.337 110.404 -133.337 110.404 -135.043 112.449 C-140.665 119.239 -145.412 126.493 -150 134 C-150.682 135.114 -151.364 136.227 -152.066 137.375 C-169.655 167.113 -177.513 199.93 -181 234 C-174.73 234 -168.46 234 -162 234 C-162 248.52 -162 263.04 -162 278 C-178.17 278 -194.34 278 -211 278 C-211 263.48 -211 248.96 -211 234 C-204.73 234 -198.46 234 -192 234 C-192.082 232.206 -192.165 230.411 -192.25 228.562 C-192.206 184.854 -172.608 139.934 -146 106 C-145.582 105.465 -145.164 104.93 -144.733 104.378 C-131.889 88.133 -116.885 73.949 -100 62 C-99.397 61.563 -98.794 61.126 -98.172 60.675 C-90.282 54.976 -81.982 50.225 -73.375 45.688 C-72.445 45.196 -71.516 44.704 -70.558 44.197 C-63.461 40.539 -56.557 37.906 -49 35 C-93.88 34.67 -138.76 34.34 -185 34 C-185.33 35.65 -185.66 37.3 -186 39 C-189.332 45.282 -194.191 49.846 -201 52 C-207.443 52.9 -213.793 53.241 -219.562 49.875 C-225.67 45.242 -230.396 39.217 -231.504 31.484 C-231.639 22.859 -230.992 16.514 -225 10 C-218.202 4.443 -213.166 2.516 -204.398 2.594 C-196.877 3.493 -191.926 8.618 -187.094 14.094 C-186 16 -186 16 -185 22 C-123.95 22 -62.9 22 0 22 C0 14.74 0 7.48 0 0 Z"/>
<path class="pen" stroke-linejoin="round" stroke-width="1" transform="translate(618,377)" d="M0 0 C4.706 0.706 4.706 0.706 6 2 C6.096 3.708 6.122 5.421 6.12 7.131 C6.121 7.688 6.121 7.688 6.124 10.501 C6.123 11.117 6.123 11.117 6.114 14.231 C6.114 15.518 6.114 16.806 6.114 18.133 C6.114 21.674 6.108 25.215 6.101 28.756 C6.095 32.453 6.095 36.15 6.093 39.847 C6.09 46.852 6.082 53.857 6.072 60.863 C6.061 68.836 6.055 76.809 6.05 84.782 C6.04 101.188 6.022 117.594 6 134 C5.625 134.198 5.625 134.198 3.73 135.198 C2.744 135.726 1.758 136.253 0.742 136.797 C-0.234 137.316 -1.21 137.835 -2.215 138.37 C-10.203 143.045 -14.822 150.175 -17.613 158.922 C-19.713 170.205 -17.42 180.41 -11 189.812 C-7.275 194.351 -2.793 196.493 2.523 198.809 C5 200 5 200 6 202 C6.093 203.571 6.122 205.146 6.12 206.72 C6.121 207.218 6.121 207.218 6.124 209.737 C6.123 210.285 6.123 210.285 6.114 213.059 C6.114 214.21 6.114 215.362 6.114 216.548 C6.113 220.368 6.105 224.188 6.098 228.008 C6.096 230.651 6.094 233.293 6.093 235.936 C6.09 242.19 6.082 248.445 6.072 254.699 C6.06 262.517 6.054 270.335 6.049 278.152 C6.039 292.102 6.019 306.051 6 320 C-11.16 320 -28.32 320 -46 320 C-63.834 274.96 -63.834 274.96 -68.934 262.039 C-69.234 261.279 -69.534 260.518 -69.844 259.734 C-71.318 256 -72.79 252.264 -74.258 248.527 C-77.415 240.501 -80.604 232.489 -83.838 224.493 C-85.626 220.067 -87.405 215.637 -89.183 211.206 C-90.056 209.04 -90.933 206.876 -91.815 204.714 C-93.044 201.698 -94.258 198.676 -95.469 195.652 C-95.842 194.749 -96.215 193.846 -96.599 192.915 C-96.766 192.495 -96.766 192.495 -97.607 190.371 C-97.755 190.007 -97.755 190.007 -98.5 188.168 C-99.727 182.848 -96.847 178.397 -94.387 173.848 C-94.204 173.504 -94.204 173.504 -93.279 171.763 C-92.088 169.526 -90.888 167.294 -89.688 165.062 C-88.86 163.513 -88.033 161.963 -87.207 160.413 C-82.26 151.149 -77.254 141.919 -72.198 132.715 C-68.712 126.354 -65.339 119.939 -62 113.5 C-57.643 105.099 -53.183 96.763 -48.632 88.465 C-44.799 81.476 -41.018 74.461 -37.25 67.438 C-31.552 56.828 -25.757 46.275 -19.925 35.739 C-14.853 26.574 -9.85 17.375 -4.896 8.146 C-4.646 7.681 -4.646 7.681 -3.379 5.328 C-2.941 4.512 -2.504 3.697 -2.053 2.856 C-1 1 -1 1 0 0 Z"/>
<path class="pen" stroke-linejoin="round" stroke-width="1" transform="translate(645.060546875,376.985595703125)" d="M0 0 C2.85 1.49 3.551 3.383 4.971 6.245 C5.527 7.346 6.084 8.448 6.658 9.583 C6.948 10.172 7.238 10.761 7.537 11.368 C8.761 13.856 10.016 16.327 11.269 18.8 C11.908 20.062 12.546 21.324 13.182 22.587 C15.966 28.107 18.891 33.54 21.877 38.952 C26.385 47.155 30.837 55.386 35.252 63.639 C35.409 63.932 35.409 63.932 36.202 65.415 C38.772 70.218 41.34 75.022 43.908 79.827 C46.147 84.015 48.386 88.202 50.627 92.389 C50.94 92.975 51.253 93.561 51.576 94.164 C55.698 101.866 59.862 109.544 64.064 117.202 C68.864 125.953 73.483 134.79 78.062 143.657 C82.286 151.813 86.64 159.891 91.07 167.936 C91.977 169.583 92.878 171.233 93.772 172.887 C94.754 174.677 95.79 176.438 96.838 178.19 C99.094 183.976 96.509 189.765 94.307 195.272 C94.038 195.96 93.77 196.649 93.493 197.358 C92.608 199.621 91.711 201.88 90.814 204.139 C90.185 205.741 89.555 207.343 88.926 208.945 C82.94 224.153 76.782 239.292 70.617 254.428 C67.616 261.801 64.645 269.186 61.689 276.577 C61.211 277.772 60.733 278.967 60.24 280.198 C57.734 286.477 55.249 292.764 52.787 299.061 C52.53 299.717 52.274 300.374 52.009 301.05 C50.778 304.198 49.55 307.347 48.327 310.499 C47.896 311.604 47.465 312.708 47.021 313.846 C46.642 314.823 46.263 315.8 45.872 316.807 C44.939 319.014 44.939 319.014 43.939 320.014 C42.41 320.113 40.876 320.142 39.344 320.144 C38.366 320.147 37.388 320.15 36.381 320.153 C35.317 320.151 34.254 320.149 33.158 320.147 C32.616 320.148 32.616 320.148 29.874 320.15 C27.577 320.151 25.281 320.149 22.984 320.145 C19.455 320.139 15.926 320.145 12.396 320.151 C10.171 320.15 7.946 320.149 5.721 320.147 C4.657 320.149 3.594 320.151 2.498 320.153 C1.52 320.15 0.542 320.147 -0.465 320.144 C-1.33 320.143 -2.195 320.142 -3.087 320.141 C-5.061 320.014 -5.061 320.014 -6.061 319.014 C-6.163 317.516 -6.196 316.013 -6.201 314.511 C-6.207 313.537 -6.212 312.564 -6.218 311.562 C-6.219 310.485 -6.221 309.409 -6.222 308.3 C-6.224 307.737 -6.224 307.737 -6.237 304.886 C-6.251 301.14 -6.258 297.393 -6.264 293.647 C-6.269 291.055 -6.275 288.463 -6.281 285.871 C-6.29 281.125 -6.296 276.379 -6.299 271.633 C-6.304 264.642 -6.321 257.651 -6.35 250.66 C-6.375 244.611 -6.382 238.562 -6.384 232.513 C-6.387 229.937 -6.395 227.36 -6.408 224.784 C-6.425 221.185 -6.424 217.586 -6.417 213.988 C-6.426 212.915 -6.435 211.843 -6.445 210.738 C-6.439 209.759 -6.434 208.781 -6.428 207.772 C-6.43 206.921 -6.431 206.07 -6.432 205.192 C-5.975 202.515 -5.157 201.684 -3.061 200.014 C-1.627 199.158 -0.166 198.348 1.314 197.577 C10.584 192.485 15.538 185.949 18.814 175.827 C21.078 167.163 19.82 159.516 15.686 151.62 C10.442 143.232 3.852 138.08 -5.061 134.014 C-6.738 132.337 -6.197 130.281 -6.208 127.979 C-6.215 126.888 -6.222 125.797 -6.229 124.673 C-6.232 123.466 -6.235 122.259 -6.238 121.015 C-6.244 119.752 -6.251 118.488 -6.257 117.187 C-6.275 113.712 -6.285 110.236 -6.294 106.761 C-6.299 104.592 -6.305 102.422 -6.311 100.253 C-6.33 93.47 -6.344 86.688 -6.353 79.905 C-6.363 72.066 -6.389 64.227 -6.429 56.388 C-6.459 50.336 -6.474 44.283 -6.478 38.23 C-6.48 34.612 -6.489 30.994 -6.514 27.376 C-6.542 23.342 -6.537 19.308 -6.531 15.273 C-6.543 14.069 -6.556 12.866 -6.569 11.627 C-6.562 10.53 -6.555 9.433 -6.548 8.304 C-6.551 7.349 -6.553 6.395 -6.556 5.411 C-6.061 3.014 -6.061 3.014 -4.159 1.185 C-2.061 0.014 -2.061 0.014 0 0 Z"/>
</svg>
